<?xml version="1.0" encoding="utf-8"?>
<svg xmlns="http://www.w3.org/2000/svg" viewBox="0 0 78 78" xmlns:bx="https://boxy-svg.com" width="78px" height="78px"><defs><bx:export><bx:file format="svg" path="Logo.svg" normalization="{&quot;removeBoxySVGMetadata&quot;:true}"/></bx:export></defs><g id="SVGRepo_bgCarrier" stroke-width="0" transform="matrix(1, 0, 0, 1, 41.356224, 37.851936)" style="visibility: hidden;"/><g id="SVGRepo_tracerCarrier" stroke-linecap="round" stroke-linejoin="round" transform="matrix(1, 0, 0, 1, 41.356224, 37.851936)" style="visibility: hidden;"/><g transform="matrix(1, 0, 0, 1, -15.921362, -14.13996)"><title>Stakater</title><path d="M20.931 16.88l20.486-.071 16.922 33.735.006 1.442-17.22.06-.025-6.095-2.922-2.167-17.161.06zm-2.248-2.465l.145 41.838 42.033-.145-.021-6.514-17.547-35.263z" transform="translate(1.527 .031)"/><path fill="#fecd07" d="M0 0H42.034V11.147H0z" transform="rotate(-.197 16379.594 -5891.641)"/><path d="M45.687 14.3l.182 52.983L60 67.23l14.114-4.052-24.254.083-.168-48.98z" transform="translate(17.97 .001)"/><path d="M24.995 56.91a7.712 7.712 0 117.686-7.739 7.721 7.721 0 01-7.686 7.739" transform="translate(.658 16.565)"/><path fill="#fff" d="M25.19 42.378a7.064 7.064 0 11-7.041 7.089 7.065 7.065 0 017.041-7.089m0-1.3a8.359 8.359 0 108.389 8.331 8.367 8.367 0 00-8.389-8.331" transform="translate(.413 16.32)"/><path d="M41.423 56.852a7.712 7.712 0 117.686-7.737 7.718 7.718 0 01-7.686 7.737" transform="translate(10.662 16.531)"/><path fill="#fff" d="M41.618 42.321a7.065 7.065 0 11-7.039 7.089 7.067 7.067 0 017.039-7.089m0-1.3A8.36 8.36 0 1050 49.357a8.372 8.372 0 00-8.389-8.331" transform="translate(10.416 16.286)"/><path fill="#fff" d="M39.578 50.19a2.878 2.878 0 112.869-2.89 2.879 2.879 0 01-2.869 2.888" transform="translate(12.491 18.36)"/><path fill="#fff" d="M39.651 44.767a2.636 2.636 0 11-2.627 2.645 2.635 2.635 0 012.627-2.645m0-.484a3.12 3.12 0 103.131 3.11 3.123 3.123 0 00-3.131-3.11" transform="translate(12.399 18.269)"/><path fill="#fff" d="M23.185 50.246a2.878 2.878 0 112.869-2.888 2.88 2.88 0 01-2.869 2.888" transform="translate(2.509 18.394)"/><path fill="#fff" d="M23.259 44.823a2.636 2.636 0 11-2.629 2.645 2.638 2.638 0 012.629-2.645m0-.484a3.12 3.12 0 103.131 3.11 3.123 3.123 0 00-3.131-3.11" transform="translate(2.418 18.303)"/><path d="M16.176 38.412a3.964 3.964 0 113.977 3.951 3.963 3.963 0 01-3.977-3.951" transform="translate(0 12.272)"/><path fill="#fecd07" d="M23.585 36.866l-1.577-13.418 1.826-.006L26.1 33.09l8.008.5.011 3.237z" transform="translate(3.551 5.578)"/><path fill="#deb306" d="M22.032 41.083c5.327-.019 10.221 2.232 11.219 9.969l-2.989.011c.806-6.576-3.461-9.652-8.23-9.98" transform="translate(3.566 16.32)"/><path fill="#deb306" d="M42.681 41.026c-5.329.019-10.205 2.3-11.151 10.048l2.989-.011c-.851-6.568 3.4-9.674 8.162-10.036" transform="translate(9.349 16.286)"/><path fill="#333" d="M18.756 35.529l17.944-.061 1.093.753.024 6.857 20.486-2.239-17.216.061-.021-6.1-2.922-2.168-19.4.067z" transform="translate(1.565 11.178)"/><path fill="#fff" d="M40.256 42.667A6.794 6.794 0 0143 51.336a9.274 9.274 0 00-2.746-8.669" transform="translate(14.663 17.285)"/><path fill="#fff" d="M23.713 42.724a6.789 6.789 0 012.746 8.667 9.271 9.271 0 00-2.746-8.667" transform="translate(4.589 17.32)"/><path fill="#fff" d="M23.323 34.9l10.016-.034.817.581.022 6.272-.935-5.586-.391-.467z" transform="translate(4.352 12.536)"/><path fill="#bf9a05" d="M22.751 23.444l1.909 11.635 9-.654v-.833l-8.008-.5-2.27-9.648z" transform="translate(4.004 5.579)"/><path fill="#957552" d="M51.312 36.1l-.133-.126z" transform="translate(21.313 13.207)"/><path fill="#957552" d="M51.007 24.922l-.116-.108z" transform="translate(21.139 6.412)"/><path fill="#c69c6d" d="M0 0H18.211V18.211H0z" transform="rotate(-.197 12792.537 -20212.474)"/><path fill="#957552" d="M0 0H3.912V3.955H0z" transform="rotate(-.197 12788.84 -22291.71)"/><path fill="#957552" d="M0 0H3.912V3.956H0z" transform="rotate(-.197 16934.806 -22298.834)"/><path fill="#c69c6d" d="M0 0H15.708V15.708H0z" transform="rotate(-.197 7783.058 -20203.926)"/><path fill="#957552" d="M0 0H3.375V3.413H0z" transform="rotate(-.197 7779.742 -21996.973)"/><path fill="#957552" d="M0 0H3.375V3.413H0z" transform="rotate(-.197 11355.656 -22003.332)"/><path fill="#c69c6d" d="M0 0H10.287V10.286H0z" transform="rotate(-.197 4198.418 -20197.583)"/><path fill="#957552" d="M0 0H2.21V2.234H0z" transform="translate(73.526 14.565)"/><path fill="#957552" d="M0 0H2.21V2.234H0z" transform="rotate(-.197 6538.233 -21376.415)"/></g><g id="SVGRepo_iconCarrier" transform="matrix(1.186694, 0, 0, 1.186694, 53.212994, 28.456867)" style=""><title>Teams</title><path fill="#5059C9" d="M10.765 6.875h3.616c.342 0 .619.276.619.617v3.288a2.272 2.272 0 01-2.274 2.27h-.01a2.272 2.272 0 01-2.274-2.27V7.199c0-.179.145-.323.323-.323zM13.21 6.225c.808 0 1.464-.655 1.464-1.462 0-.808-.656-1.463-1.465-1.463s-1.465.655-1.465 1.463c0 .807.656 1.462 1.465 1.462z"/><path fill="#7B83EB" d="M8.651 6.225a2.114 2.114 0 002.117-2.112A2.114 2.114 0 008.65 2a2.114 2.114 0 00-2.116 2.112c0 1.167.947 2.113 2.116 2.113zM11.473 6.875h-5.97a.611.611 0 00-.596.625v3.75A3.669 3.669 0 008.488 15a3.669 3.669 0 003.582-3.75V7.5a.611.611 0 00-.597-.625z"/><path fill="#000000" d="M8.814 6.875v5.255a.598.598 0 01-.596.595H5.193a3.951 3.951 0 01-.287-1.476V7.5a.61.61 0 01.597-.624h3.31z" opacity=".1"/><path fill="#000000" d="M8.488 6.875v5.58a.6.6 0 01-.596.595H5.347a3.22 3.22 0 01-.267-.65 3.951 3.951 0 01-.172-1.15V7.498a.61.61 0 01.596-.624h2.985z" opacity=".2"/><path fill="#000000" d="M8.488 6.875v4.93a.6.6 0 01-.596.595H5.08a3.951 3.951 0 01-.172-1.15V7.498a.61.61 0 01.596-.624h2.985z" opacity=".2"/><path fill="#000000" d="M8.163 6.875v4.93a.6.6 0 01-.596.595H5.079a3.951 3.951 0 01-.172-1.15V7.498a.61.61 0 01.596-.624h2.66z" opacity=".2"/><path fill="#000000" d="M8.814 5.195v1.024c-.055.003-.107.006-.163.006-.055 0-.107-.003-.163-.006A2.115 2.115 0 016.593 4.6h1.625a.598.598 0 01.596.594z" opacity=".1"/><path fill="#000000" d="M8.488 5.52v.699a2.115 2.115 0 01-1.79-1.293h1.195a.598.598 0 01.595.594z" opacity=".2"/><path fill="#000000" d="M8.488 5.52v.699a2.115 2.115 0 01-1.79-1.293h1.195a.598.598 0 01.595.594z" opacity=".2"/><path fill="#000000" d="M8.163 5.52v.647a2.115 2.115 0 01-1.465-1.242h.87a.598.598 0 01.595.595z" opacity=".2"/><path fill="url(#microsoft-teams-color-16__paint0_linear_2372_494)" d="M1.597 4.925h5.969c.33 0 .597.267.597.596v5.958a.596.596 0 01-.597.596h-5.97A.596.596 0 011 11.479V5.521c0-.33.267-.596.597-.596z"/><path fill="#ffffff" d="M6.152 7.193H4.959v3.243h-.76V7.193H3.01v-.63h3.141v.63z"/><defs><linearGradient id="microsoft-teams-color-16__paint0_linear_2372_494" x1="2.244" x2="6.906" y1="4.46" y2="12.548" gradientUnits="userSpaceOnUse"><stop stop-color="#5A62C3"/><stop offset="0.5" stop-color="#4D55BD"/><stop offset="1" stop-color="#3940AB"/></linearGradient></defs></g><g id="group-1" transform="matrix(1.010886, 0, 0, 1.010886, 53.354015, 11.813212)" style=""><title>Teams</title><path fill="#5059C9" d="M10.765 6.875h3.616c.342 0 .619.276.619.617v3.288a2.272 2.272 0 01-2.274 2.27h-.01a2.272 2.272 0 01-2.274-2.27V7.199c0-.179.145-.323.323-.323zM13.21 6.225c.808 0 1.464-.655 1.464-1.462 0-.808-.656-1.463-1.465-1.463s-1.465.655-1.465 1.463c0 .807.656 1.462 1.465 1.462z"/><path fill="#7B83EB" d="M8.651 6.225a2.114 2.114 0 002.117-2.112A2.114 2.114 0 008.65 2a2.114 2.114 0 00-2.116 2.112c0 1.167.947 2.113 2.116 2.113zM11.473 6.875h-5.97a.611.611 0 00-.596.625v3.75A3.669 3.669 0 008.488 15a3.669 3.669 0 003.582-3.75V7.5a.611.611 0 00-.597-.625z"/><path fill="#000000" d="M8.814 6.875v5.255a.598.598 0 01-.596.595H5.193a3.951 3.951 0 01-.287-1.476V7.5a.61.61 0 01.597-.624h3.31z" opacity=".1"/><path fill="#000000" d="M8.488 6.875v5.58a.6.6 0 01-.596.595H5.347a3.22 3.22 0 01-.267-.65 3.951 3.951 0 01-.172-1.15V7.498a.61.61 0 01.596-.624h2.985z" opacity=".2"/><path fill="#000000" d="M8.488 6.875v4.93a.6.6 0 01-.596.595H5.08a3.951 3.951 0 01-.172-1.15V7.498a.61.61 0 01.596-.624h2.985z" opacity=".2"/><path fill="#000000" d="M8.163 6.875v4.93a.6.6 0 01-.596.595H5.079a3.951 3.951 0 01-.172-1.15V7.498a.61.61 0 01.596-.624h2.66z" opacity=".2"/><path fill="#000000" d="M8.814 5.195v1.024c-.055.003-.107.006-.163.006-.055 0-.107-.003-.163-.006A2.115 2.115 0 016.593 4.6h1.625a.598.598 0 01.596.594z" opacity=".1"/><path fill="#000000" d="M8.488 5.52v.699a2.115 2.115 0 01-1.79-1.293h1.195a.598.598 0 01.595.594z" opacity=".2"/><path fill="#000000" d="M8.488 5.52v.699a2.115 2.115 0 01-1.79-1.293h1.195a.598.598 0 01.595.594z" opacity=".2"/><path fill="#000000" d="M8.163 5.52v.647a2.115 2.115 0 01-1.465-1.242h.87a.598.598 0 01.595.595z" opacity=".2"/><path fill="url(#gradient-1)" d="M1.597 4.925h5.969c.33 0 .597.267.597.596v5.958a.596.596 0 01-.597.596h-5.97A.596.596 0 011 11.479V5.521c0-.33.267-.596.597-.596z"/><path fill="#ffffff" d="M6.152 7.193H4.959v3.243h-.76V7.193H3.01v-.63h3.141v.63z"/><defs><linearGradient id="gradient-1" x1="2.244" x2="6.906" y1="4.46" y2="12.548" gradientUnits="userSpaceOnUse"><stop stop-color="#5A62C3"/><stop offset="0.5" stop-color="#4D55BD"/><stop offset="1" stop-color="#3940AB"/></linearGradient></defs></g><g id="group-2" transform="matrix(0.634212, 0, 0, 0.634212, 53.632248, -0.028254)" style=""><title>Teams</title><path fill="#5059C9" d="M10.765 6.875h3.616c.342 0 .619.276.619.617v3.288a2.272 2.272 0 01-2.274 2.27h-.01a2.272 2.272 0 01-2.274-2.27V7.199c0-.179.145-.323.323-.323zM13.21 6.225c.808 0 1.464-.655 1.464-1.462 0-.808-.656-1.463-1.465-1.463s-1.465.655-1.465 1.463c0 .807.656 1.462 1.465 1.462z"/><path fill="#7B83EB" d="M8.651 6.225a2.114 2.114 0 002.117-2.112A2.114 2.114 0 008.65 2a2.114 2.114 0 00-2.116 2.112c0 1.167.947 2.113 2.116 2.113zM11.473 6.875h-5.97a.611.611 0 00-.596.625v3.75A3.669 3.669 0 008.488 15a3.669 3.669 0 003.582-3.75V7.5a.611.611 0 00-.597-.625z"/><path fill="#000000" d="M8.814 6.875v5.255a.598.598 0 01-.596.595H5.193a3.951 3.951 0 01-.287-1.476V7.5a.61.61 0 01.597-.624h3.31z" opacity=".1"/><path fill="#000000" d="M8.488 6.875v5.58a.6.6 0 01-.596.595H5.347a3.22 3.22 0 01-.267-.65 3.951 3.951 0 01-.172-1.15V7.498a.61.61 0 01.596-.624h2.985z" opacity=".2"/><path fill="#000000" d="M8.488 6.875v4.93a.6.6 0 01-.596.595H5.08a3.951 3.951 0 01-.172-1.15V7.498a.61.61 0 01.596-.624h2.985z" opacity=".2"/><path fill="#000000" d="M8.163 6.875v4.93a.6.6 0 01-.596.595H5.079a3.951 3.951 0 01-.172-1.15V7.498a.61.61 0 01.596-.624h2.66z" opacity=".2"/><path fill="#000000" d="M8.814 5.195v1.024c-.055.003-.107.006-.163.006-.055 0-.107-.003-.163-.006A2.115 2.115 0 016.593 4.6h1.625a.598.598 0 01.596.594z" opacity=".1"/><path fill="#000000" d="M8.488 5.52v.699a2.115 2.115 0 01-1.79-1.293h1.195a.598.598 0 01.595.594z" opacity=".2"/><path fill="#000000" d="M8.488 5.52v.699a2.115 2.115 0 01-1.79-1.293h1.195a.598.598 0 01.595.594z" opacity=".2"/><path fill="#000000" d="M8.163 5.52v.647a2.115 2.115 0 01-1.465-1.242h.87a.598.598 0 01.595.595z" opacity=".2"/><path fill="url(#gradient-2)" d="M1.597 4.925h5.969c.33 0 .597.267.597.596v5.958a.596.596 0 01-.597.596h-5.97A.596.596 0 011 11.479V5.521c0-.33.267-.596.597-.596z"/><path fill="#ffffff" d="M6.152 7.193H4.959v3.243h-.76V7.193H3.01v-.63h3.141v.63z"/><defs><linearGradient id="gradient-2" x1="2.244" x2="6.906" y1="4.46" y2="12.548" gradientUnits="userSpaceOnUse"><stop stop-color="#5A62C3"/><stop offset="0.5" stop-color="#4D55BD"/><stop offset="1" stop-color="#3940AB"/></linearGradient></defs></g></svg>